#!OML:ASF F:\VICON\USERDATA\INSTALL\Justin_Nancy\Justin_Nancy.ASF
:FULLY-SPECIFIED
:DEGREES
302
root -1.95 17.2882 7.33848 -3.74598 -50.729 7.69808
lowerback 5.94562 -1.51893 -5.51086
upperback 0.122077 -2.35366 1.62287
thorax -2.91962 -1.08786 4.97694
lowerneck -15.6754 -2.99155 -9.9512
upperneck 23.4506 -2.80275 4.23407
head 10.2987 -1.74941 2.7854
rclavicle -2.14687e-014 1.19271e-014
rhumerus -36.4567 -11.9585 -78.0408
rradius 30.2443
rwrist 3.27041
rhand -12.2968 11.5239
rfingers 7.12502
rthumb 13.771 -18.0003
lclavicle -2.14687e-014 1.19271e-014
lhumerus -22.876 11.351 86.7253
lradius 31.0828
lwrist -7.20875
lhand -17.5477 23.5387
lfingers 7.12502
lthumb 8.70687 53.3392
rfemur -26.891 1.56732 18.1422
rtibia 12.6785
rfoot -2.52299 -2.44368
rtoes -4.60776
lfemur 7.36258 -2.05338 -30.9413
ltibia 17.6519
lfoot -14.7339 -7.4345
ltoes 6.62299
303
root -2.05653 17.2826 7.42605 -3.96321 -50.4939 8.17846
lowerback 5.86421 -1.55894 -5.90257
upperback 0.0537741 -2.43015 1.61805
thorax -2.91986 -1.11864 5.19774
lowerneck -15.7041 -3.03126 -10.168
upperneck 23.3999 -2.84839 4.44337
head 10.2961 -1.76324 2.89001
rclavicle -1.19668e-013 9.54166e-015
rhumerus -36.5345 -11.4108 -78.1983
rradius 30.4446
rwrist 2.11777
rhand -13.2685 10.7698
rfingers 7.12502
rthumb 12.8344 -18.8156
lclavicle -1.19668e-013 9.54166e-015
lhumerus -23.055 11.639 86.8586
lradius 31.1875
lwrist -7.17424
lhand -18.5077 23.3706
lfingers 7.12502
lthumb 7.78029 53.2075
rfemur -26.9906 1.39552 17.8953
rtibia 13.5789
rfoot -1.92752 -2.15544
rtoes -3.02528
lfemur 7.40681 -1.75751 -31.1834
ltibia 18.0571
lfoot -14.5762 -7.88444
ltoes 4.9754
304
root -2.18735 17.2681 7.58065 -4.51021 -51.3999 8.07787
lowerback 5.67648 -1.30193 -5.34011
upperback 0.313014 -2.03643 1.60494
thorax -2.61646 -0.947027 4.824
lowerneck -15.4559 -3.06875 -10.5746
upperneck 23.3122 -2.87835 4.6659
head 10.2305 -1.78887 3.03386
rclavicle 1.1291e-013 -5.56597e-015
rhumerus -36.7543 -11.0102 -78.2098
rradius 30.5493
rwrist 1.35016
rhand -13.5419 10.6466
rfingers 7.12502
rthumb 12.5708 -18.9552
lclavicle 1.1291e-013 -5.56597e-015
lhumerus -23.516 12.0923 86.9426
lradius 31.3725
lwrist -7.37126
lhand -19.4324 23.1806
lfingers 7.12502
lthumb 6.88777 53.0485
rfemur -26.2612 2.07487 18.0862
rtibia 14.6826
rfoot -1.50852 -0.84188
rtoes -3.6122
lfemur 8.4482 -2.12894 -31.661
ltibia 18.497
lfoot -14.5643 -6.50692
ltoes 3.1365
305
root -2.28769 17.2717 7.64756 -3.95246 -50.8168 7.56563
lowerback 5.81218 -1.48187 -5.18639
upperback 0.226986 -2.27178 1.70448
thorax -2.75494 -1.05927 4.86468
lowerneck -15.4183 -3.07073 -10.4389
upperneck 23.2432 -2.88525 4.53386
head 10.1949 -1.79373 2.96189
rclavicle 8.8161e-014 5.56597e-015
rhumerus -36.6226 -11.7269 -77.9919
rradius 30.1693
rwrist 2.12622
rhand -12.9988 11.252
rfingers 7.12502
rthumb 13.0944 -18.3169
lclavicle 8.8161e-014 5.56597e-015
lhumerus -23.6962 12.4954 86.8856
lradius 31.4966
lwrist -7.54377
lhand -19.2915 23.2238
lfingers 7.12502
lthumb 7.02378 53.0873
rfemur -26.2528 2.69328 18.1361
rtibia 15.7241
rfoot -1.52362 -1.10826
rtoes -1.10012
lfemur 8.38842 -2.26353 -31.1251
ltibia 19.0701
lfoot -14.1726 -7.26894
ltoes 1.72559
306
root -2.4003 17.2711 7.72661 -3.70619 -50.4312 7.34729
lowerback 5.9617 -1.58681 -5.20751
upperback 0.132791 -2.42105 1.73246
thorax -2.91649 -1.12563 4.92519
lowerneck -15.5621 -3.02199 -10.0957
upperneck 23.3254 -2.84717 4.35548
head 10.2396 -1.7666 2.8461
rclavicle 5.09883e-014 -1.51076e-014
rhumerus -36.3698 -13.3197 -77.4939
rradius 29.4256
rwrist 3.57364
rhand -13.4086 10.8813
rfingers 7.12502
rthumb 12.6993 -18.7126
lclavicle 5.09883e-014 -1.51076e-014
lhumerus -23.8131 12.5286 86.7724
lradius 31.3949
lwrist -7.31213
lhand -18.8063 23.5669
lfingers 7.12502
lthumb 7.49213 53.4143
rfemur -26.023 3.16313 18.151
rtibia 16.5269
rfoot -1.91903 -1.2609
rtoes -0.230203
lfemur 8.46438 -2.2086 -30.814
ltibia 19.6365
lfoot -13.832 -7.85839
ltoes -0.277159
307
root -2.52043 17.2764 7.80997 -3.60252 -50.1791 7.24906
lowerback 6.02099 -1.64007 -5.32863
upperback 0.0914895 -2.50323 1.75781
thorax -2.97648 -1.16173 5.03001
lowerneck -15.7081 -2.99138 -9.72273
upperneck 23.3219 -2.82533 4.1209
head 10.2541 -1.74829 2.70175
rclavicle -2.48481e-015 3.26007e-014
rhumerus -36.1167 -15.5072 -76.7196
rradius 28.5357
rwrist 5.55628
rhand -13.6637 10.9161
rfingers 7.12502
rthumb 12.4533 -18.6929
lclavicle -2.48481e-015 3.26007e-014
lhumerus -24.0143 11.8623 86.7762
lradius 31.4026
lwrist -6.47373
lhand -18.8328 23.5384
lfingers 7.12502
lthumb 7.46659 53.3866
rfemur -25.6208 3.41939 18.2104
rtibia 16.8429
rfoot -1.64729 -1.01717
rtoes -0.65517
lfemur 8.41206 -2.1119 -30.5953
ltibia 20.5489
lfoot -13.5252 -8.44789
ltoes -2.77179
